# xmcd
#
# Track frame offsets: 
#        183
#        12833
#        23858
#        40483
#        54545
#        66738
#        79720
#        94695
#        106760
#        122373
#        138420
#        147703
#        155415
#        162930
#        171220
#        177975
#        197583
#        214920
#
# Disc length: 3071 seconds
#
# Revision: 0
# Processed by: cddbd v1.4PL0 Copyright (c) Steve Scherf et al.
# Submitted via: ExactAudioCopy v0.90b4
#
DISCID=fd0bfd12
DTITLE=Various Artist - Country Music For Families
DYEAR=1994
DGENRE=Country
TTITLE0=The Old Chisholm Trail (The Moody Brothers)
TTITLE1=Red River Valley (The Moody Brothers)
TTITLE2=Shady Grove (The Moody Brothers)
TTITLE3=The Engineers Don't Wave From The Trains Anymore (The Thrifts)
TTITLE4=Happy As A Cow In Clover (The Thrifts)
TTITLE5=Midnight Train (The Thrifts)
TTITLE6=Grandfather's Clock (Hoedown Duo)
TTITLE7=Turkey In The Staw - Poor Old Nelly (Hoedown Duo)
TTITLE8=Froggie Went A-Courtin' (Hoedown Duo)
TTITLE9=How Many Biscuits Can You Eat ? (Hillbilly Trio)
TTITLE10=I'm The Man Who Rode The Mule (Hillbilly Trio)
TTITLE11=Cindy (Hillbilly Trio)
TTITLE12=Davy Crocket (Johnny Guitar)
TTITLE13=Mary Lou (Johnny Guitar)
TTITLE14=Mary Lou (Main Street Quartet)
TTITLE15=The Ol' Square Dance - Chicken Reel (Country Band)
TTITLE16=The Battle Of New Orleans (Country Band)
TTITLE17=Back On Those Texas Plains (Country Band)
EXTD=
EXTT0=
EXTT1=
EXTT2=
EXTT3=
EXTT4=
EXTT5=
EXTT6=
EXTT7=
EXTT8=
EXTT9=
EXTT10=
EXTT11=
EXTT12=
EXTT13=
EXTT14=
EXTT15=
EXTT16=
EXTT17=
PLAYORDER=
